<svg xmlns="http://www.w3.org/2000/svg" xmlns:xlink="http://www.w3.org/1999/xlink" version="1.1" class="marks" width="645" height="222" viewBox="0 0 645 222"><g fill="none" stroke-miterlimit="10" transform="translate(23,5)"><g class="mark-group role-frame root" role="graphics-object" aria-roledescription="group mark container"><g transform="translate(0,0)"><path class="background" aria-hidden="true" d="M0,0h500v200h-500Z"/><g><g class="mark-group role-scope" role="graphics-object" aria-roledescription="group mark container"><g transform="translate(0,0)"><path class="background" aria-hidden="true" d="M0,0h0v0h0Z"/><g><g class="mark-area role-mark" role="graphics-symbol" aria-roledescription="area mark container"><path d="M0,200L1.462058569708834,200L2.9239041356947015,200L4.385919860994055,200L13.157997359302081,200L14.619911354510675,200L16.082027591576345,200L17.544003924385468,200L19.006082393393488,200L19.20074403885781,200L19.24964656661807,200L19.298422591690617,200L19.347118004296036,200L19.395777273276394,200L19.444440603338222,200L19.493147590025824,200L19.541979861076697,200L19.590641363651866,200L19.639525819599594,200L19.688207018419877,200L20.46798846949322,200L20.516530373219172,200L20.565430464330554,200L20.614071255390236,200L20.662886672953018,200L20.711621478048674,200L20.76024927364766,200L20.809093321834787,200L20.857736752597425,200L20.906518869292174,200L20.95530179820322,200L21.00392553272074,200L21.052802069559604,200L21.101449561403708,200L21.1502328964229,200L21.92978956663702,200L30.701777111990545,200L32.16372846914864,200L33.077612921898265,200L33.260317322144,200L33.44301461549716,200L33.625887144515644,200L33.80858037678734,200L33.99119360575413,200L34.173968059655174,200L34.35675916399024,200L34.539580117274085,200L34.72227010068061,200L34.9051371472391,200L35.0877365685289,200L35.270589807410424,200L35.45325055103038,200L35.63594520468059,200L35.81885083151303,200L36.00141492139406,200L36.184217396757234,200L36.36700200336195,200L36.5498343276739,200L36.732468268156175,200L36.91525328086903,200L37.097989763658354,200L37.28079569094078,200L37.46360364876393,200L37.64627921533124,200L37.828860158700365,200L38.011731875502555,200L38.19440175655581,200L38.37727327030393,200L38.56004691198868,200L38.74277588177729,200L38.9254179444225,200L39.108163158536975,200L39.29094106435726,200L39.47368729374212,200L39.656570584626486,200L39.83920675870357,200L40.02207766328946,200L48.245615141198066,200L48.42845619683518,200L48.61107165939677,200L48.793888348545075,200L48.9767117384778,200L49.15933430793197,200L49.34212480310481,200L49.52486900194893,200L49.707677771988365,200L49.890336282013514,200L50.07312271610489,200L50.25596966031013,200L50.43853821738078,200L50.62146496183685,200L50.804154336081154,200L50.986906047925984,200L51.16966385139301,200L51.352472012270226,200L51.53519346905813,200L51.71800223909757,200L53.54546351767567,200L53.72804486715294,200L53.910926939712866,200L54.09366667136737,200L54.276442140538784,200L54.45915588127188,200L54.641928710740345,200L54.824723876156874,200L55.007552545495514,200L55.1901032338077,200L55.37277027210393,200L55.55568605164004,200L55.73837867474952,200L55.921063378750134,200L56.10388676868286,200L56.286578782630116,200L56.469455169675996,200L56.65208768877975,200L56.83473421861458,200L57.01763943933887,200L57.20034891593644,200L57.38316255927364,200L57.56578309818707,200L67.79970372583209,200L67.98250457676266,200L68.16552614747101,200L68.34807094721506,200L68.53089149439077,200L68.7134555842718,200L68.89620303198109,200L69.07896773928661,200L69.26184290800805,200L69.4444541064341,200L69.6271946503049,200L69.99276812764985,200L70.17561994515287,200L70.35834099583262,200L70.54096762636824,200L70.72369050453466,200L70.9065106456022,200L71.08921057865831,200L71.27201346012964,200L71.45485959211858,200L71.63749799979047,200L71.82026311320413,200L72.00299269215498,200L72.18574684064868,200L72.36853104114525,200L72.73400035175057,200L72.91679470495082,200L73.09965606599525,200L73.2822520353658,200L73.464885772794,200L73.6477276406474,200L73.83042737064946,200L74.01328670115316,200L74.19607638410972,200L74.37869631386093,200L74.56139868356593,200L74.74431507226426,200L74.9269827197227,200L75.10964569693746,200L118.42123224359389,200L118.60385054891252,200L118.78651149558655,200L118.96935316038588,200L119.15219096715782,200L119.33481008469273,200L119.51758535081007,200L119.70046295618039,200L119.88302400025032,200L120.06586058869782,200L120.24858387297238,200L120.43135040776457,200L120.61413643574778,200L120.7968729185371,200L120.97971255279572,200L121.16246893488422,200L121.34532643790128,200L121.528030838147,200L121.71066335725077,200L121.89339131176902,200L122.2588776789165,200L122.44162979686948,200L122.62445034404517,200L122.80709159447409,200L122.9898487887789,200L123.1726975604708,200L123.35543302798975,200L123.53812219917998,200L123.72091350656912,200L123.90361628238226,200L124.0864136813936,200L124.26912640685633,200L124.4520517299339,200L124.63463084581636,200L124.81741423409663,200L125.00014787412894,200L125.18299867636156,200L125.36583100067352,200L125.54853113678371,200L125.73106822047298,200L125.91395272968181,200L126.09669408576887,200L126.2793367575763,200L126.46219121478228,200L126.64475875658255,200L126.82762255427588,200L127.01028979562618,200L127.19314039480473,200L127.37580946364172,200L127.55851894023925,200L127.74142111515246,200L139.07183312983761,200L139.2544959039983,200L139.43735036120424,200L139.62010978910388,200L139.80288931935675,200L139.98560752727948,200L140.16846096921506,200L140.35115359232452,200L140.5337542319388,200L140.7164165999913,200L140.89920689211007,200L141.08204205917906,200L141.26480920313347,200L141.44759847998188,200L141.63028582368545,200L141.81293235352027,200L141.99576264729149,200L142.1784512093195,200L142.36138851258738,200L142.72691569360362,200L142.90960303730722,200L143.0923070314448,200L143.27509976021244,200L143.45773106099173,200L143.6404003328828,200L143.82338413553347,200L144.00594253990045,200L144.1888830920335,200L144.37146870564632,200L144.55419077159644,200L144.7369497933879,200L144.9196279996582,200L145.10235879693346,200L145.28508533007317,200L171.41825340987944,200L171.60085709530478,200L171.78376373740758,200L171.96646346740962,200L172.14923142358032,200L172.3320194821043,200L172.5147277403774,200L172.57015744132616,200L500,200L500,200L172.57015744132616,132.5L172.5147277403774,132.5L172.3320194821043,132.5L172.14923142358032,132.5L171.96646346740962,132.5L171.78376373740758,132.5L171.60085709530478,132.5L171.41825340987944,132.5L145.28508533007317,132.5L145.10235879693346,132.5L144.9196279996582,132.5L144.7369497933879,132.5L144.55419077159644,132.5L144.37146870564632,132.5L144.1888830920335,132.5L144.00594253990045,132.5L143.82338413553347,132.5L143.6404003328828,132.5L143.45773106099173,132.5L143.27509976021244,132.5L143.0923070314448,132.5L142.90960303730722,132.5L142.72691569360362,132.5L142.36138851258738,132.5L142.1784512093195,132.5L141.99576264729149,132.5L141.81293235352027,130L141.63028582368545,130L141.44759847998188,130L141.26480920313347,130L141.08204205917906,130L140.89920689211007,130L140.7164165999913,130L140.5337542319388,130L140.35115359232452,130L140.16846096921506,130L139.98560752727948,130L139.80288931935675,130L139.62010978910388,130L139.43735036120424,122.50000000000001L139.2544959039983,122.50000000000001L139.07183312983761,122.50000000000001L127.74142111515246,112.5L127.55851894023925,112.5L127.37580946364172,112.5L127.19314039480473,112.5L127.01028979562618,112.5L126.82762255427588,112.5L126.64475875658255,112.5L126.46219121478228,112.5L126.2793367575763,112.5L126.09669408576887,112.5L125.91395272968181,112.5L125.73106822047298,112.5L125.54853113678371,112.5L125.36583100067352,100L125.18299867636156,100L125.00014787412894,100L124.81741423409663,100L124.63463084581636,100L124.4520517299339,100L124.26912640685633,100L124.0864136813936,100L123.90361628238226,100L123.72091350656912,92.5L123.53812219917998,92.5L123.35543302798975,92.5L123.1726975604708,92.5L122.9898487887789,92.5L122.80709159447409,92.5L122.62445034404517,92.5L122.44162979686948,92.5L122.2588776789165,92.5L121.89339131176902,100L121.71066335725077,100L121.528030838147,100L121.34532643790128,100L121.16246893488422,100L120.97971255279572,100L120.7968729185371,100L120.61413643574778,95L120.43135040776457,95L120.24858387297238,95L120.06586058869782,95L119.88302400025032,95L119.70046295618039,95L119.51758535081007,95L119.33481008469273,95L119.15219096715782,95L118.96935316038588,95L118.78651149558655,95L118.60385054891252,95L118.42123224359389,95L75.10964569693746,95L74.9269827197227,95L74.74431507226426,95L74.56139868356593,95L74.37869631386093,95L74.19607638410972,95L74.01328670115316,95L73.83042737064946,95L73.6477276406474,95L73.464885772794,95L73.2822520353658,95L73.09965606599525,95L72.91679470495082,95L72.73400035175057,95L72.36853104114525,95L72.18574684064868,95L72.00299269215498,95L71.82026311320413,95L71.63749799979047,95L71.45485959211858,95L71.27201346012964,95L71.08921057865831,95L70.9065106456022,95L70.72369050453466,95L70.54096762636824,95L70.35834099583262,95L70.17561994515287,95L69.99276812764985,95L69.6271946503049,95L69.4444541064341,95L69.26184290800805,87.5L69.07896773928661,87.5L68.89620303198109,87.5L68.7134555842718,87.5L68.53089149439077,87.5L68.34807094721506,87.5L68.16552614747101,87.5L67.98250457676266,87.5L67.79970372583209,87.5L57.56578309818707,87.5L57.38316255927364,87.5L57.20034891593644,87.5L57.01763943933887,87.5L56.83473421861458,87.5L56.65208768877975,87.5L56.469455169675996,87.5L56.286578782630116,87.5L56.10388676868286,87.5L55.921063378750134,87.5L55.73837867474952,87.5L55.55568605164004,87.5L55.37277027210393,87.5L55.1901032338077,87.5L55.007552545495514,87.5L54.824723876156874,87.5L54.641928710740345,87.5L54.45915588127188,87.5L54.276442140538784,87.5L54.09366667136737,87.5L53.910926939712866,87.5L53.72804486715294,87.5L53.54546351767567,87.5L51.71800223909757,87.5L51.53519346905813,87.5L51.352472012270226,87.5L51.16966385139301,87.5L50.986906047925984,87.5L50.804154336081154,87.5L50.62146496183685,87.5L50.43853821738078,87.5L50.25596966031013,87.5L50.07312271610489,87.5L49.890336282013514,87.5L49.707677771988365,87.5L49.52486900194893,87.5L49.34212480310481,87.5L49.15933430793197,87.5L48.9767117384778,87.5L48.793888348545075,87.5L48.61107165939677,87.5L48.42845619683518,87.5L48.245615141198066,87.5L40.02207766328946,87.5L39.83920675870357,87.5L39.656570584626486,87.5L39.47368729374212,87.5L39.29094106435726,87.5L39.108163158536975,87.5L38.9254179444225,87.5L38.74277588177729,87.5L38.56004691198868,87.5L38.37727327030393,87.5L38.19440175655581,87.5L38.011731875502555,87.5L37.828860158700365,87.5L37.64627921533124,87.5L37.46360364876393,87.5L37.28079569094078,87.5L37.097989763658354,87.5L36.91525328086903,87.5L36.732468268156175,87.5L36.5498343276739,87.5L36.36700200336195,87.5L36.184217396757234,87.5L36.00141492139406,87.5L35.81885083151303,87.5L35.63594520468059,87.5L35.45325055103038,87.5L35.270589807410424,87.5L35.0877365685289,87.5L34.9051371472391,87.5L34.72227010068061,87.5L34.539580117274085,87.5L34.35675916399024,87.5L34.173968059655174,87.5L33.99119360575413,87.5L33.80858037678734,87.5L33.625887144515644,87.5L33.44301461549716,87.5L33.260317322144,87.5L33.077612921898265,87.5L32.16372846914864,87.5L30.701777111990545,87.5L21.92978956663702,87.5L21.1502328964229,87.5L21.101449561403708,87.5L21.052802069559604,87.5L21.00392553272074,87.5L20.95530179820322,87.5L20.906518869292174,87.5L20.857736752597425,87.5L20.809093321834787,87.5L20.76024927364766,87.5L20.711621478048674,87.5L20.662886672953018,87.5L20.614071255390236,87.5L20.565430464330554,87.5L20.516530373219172,75L20.46798846949322,75L19.688207018419877,75L19.639525819599594,75L19.590641363651866,75L19.541979861076697,75L19.493147590025824,75L19.444440603338222,75L19.395777273276394,75L19.347118004296036,75L19.298422591690617,75L19.24964656661807,75L19.20074403885781,75L19.006082393393488,75L17.544003924385468,75L16.082027591576345,77.49999999999999L14.619911354510675,72.50000000000001L13.157997359302081,72.50000000000001L4.385919860994055,72.50000000000001L2.9239041356947015,72.50000000000001L1.462058569708834,72.50000000000001L0,72.50000000000001Z" fill="#EE4949"/></g></g><path class="foreground" aria-hidden="true" d="" display="none"/></g><g transform="translate(0,0)"><path class="background" aria-hidden="true" d="M0,0h0v0h0Z"/><g><g class="mark-area role-mark" role="graphics-symbol" aria-roledescription="area mark container"><path d="M0,72.50000000000001L1.462058569708834,72.50000000000001L2.9239041356947015,72.50000000000001L4.385919860994055,72.50000000000001L13.157997359302081,72.50000000000001L14.619911354510675,72.50000000000001L16.082027591576345,77.49999999999999L17.544003924385468,75L19.006082393393488,75L19.20074403885781,75L19.24964656661807,75L19.298422591690617,75L19.347118004296036,75L19.395777273276394,75L19.444440603338222,75L19.493147590025824,75L19.541979861076697,75L19.590641363651866,75L19.639525819599594,75L19.688207018419877,75L20.46798846949322,75L20.516530373219172,75L20.565430464330554,87.5L20.614071255390236,87.5L20.662886672953018,87.5L20.711621478048674,87.5L20.76024927364766,87.5L20.809093321834787,87.5L20.857736752597425,87.5L20.906518869292174,87.5L20.95530179820322,87.5L21.00392553272074,87.5L21.052802069559604,87.5L21.101449561403708,87.5L21.1502328964229,87.5L21.92978956663702,87.5L30.701777111990545,87.5L32.16372846914864,87.5L33.077612921898265,87.5L33.260317322144,87.5L33.44301461549716,87.5L33.625887144515644,87.5L33.80858037678734,87.5L33.99119360575413,87.5L34.173968059655174,87.5L34.35675916399024,87.5L34.539580117274085,87.5L34.72227010068061,87.5L34.9051371472391,87.5L35.0877365685289,87.5L35.270589807410424,87.5L35.45325055103038,87.5L35.63594520468059,87.5L35.81885083151303,87.5L36.00141492139406,87.5L36.184217396757234,87.5L36.36700200336195,87.5L36.5498343276739,87.5L36.732468268156175,87.5L36.91525328086903,87.5L37.097989763658354,87.5L37.28079569094078,87.5L37.46360364876393,87.5L37.64627921533124,87.5L37.828860158700365,87.5L38.011731875502555,87.5L38.19440175655581,87.5L38.37727327030393,87.5L38.56004691198868,87.5L38.74277588177729,87.5L38.9254179444225,87.5L39.108163158536975,87.5L39.29094106435726,87.5L39.47368729374212,87.5L39.656570584626486,87.5L39.83920675870357,87.5L40.02207766328946,87.5L48.245615141198066,87.5L48.42845619683518,87.5L48.61107165939677,87.5L48.793888348545075,87.5L48.9767117384778,87.5L49.15933430793197,87.5L49.34212480310481,87.5L49.52486900194893,87.5L49.707677771988365,87.5L49.890336282013514,87.5L50.07312271610489,87.5L50.25596966031013,87.5L50.43853821738078,87.5L50.62146496183685,87.5L50.804154336081154,87.5L50.986906047925984,87.5L51.16966385139301,87.5L51.352472012270226,87.5L51.53519346905813,87.5L51.71800223909757,87.5L53.54546351767567,87.5L53.72804486715294,87.5L53.910926939712866,87.5L54.09366667136737,87.5L54.276442140538784,87.5L54.45915588127188,87.5L54.641928710740345,87.5L54.824723876156874,87.5L55.007552545495514,87.5L55.1901032338077,87.5L55.37277027210393,87.5L55.55568605164004,87.5L55.73837867474952,87.5L55.921063378750134,87.5L56.10388676868286,87.5L56.286578782630116,87.5L56.469455169675996,87.5L56.65208768877975,87.5L56.83473421861458,87.5L57.01763943933887,87.5L57.20034891593644,87.5L57.38316255927364,87.5L57.56578309818707,87.5L67.79970372583209,87.5L67.98250457676266,87.5L68.16552614747101,87.5L68.34807094721506,87.5L68.53089149439077,87.5L68.7134555842718,87.5L68.89620303198109,87.5L69.07896773928661,87.5L69.26184290800805,87.5L69.4444541064341,95L69.6271946503049,95L69.99276812764985,95L70.17561994515287,95L70.35834099583262,95L70.54096762636824,95L70.72369050453466,95L70.9065106456022,95L71.08921057865831,95L71.27201346012964,95L71.45485959211858,95L71.63749799979047,95L71.82026311320413,95L72.00299269215498,95L72.18574684064868,95L72.36853104114525,95L72.73400035175057,95L72.91679470495082,95L73.09965606599525,95L73.2822520353658,95L73.464885772794,95L73.6477276406474,95L73.83042737064946,95L74.01328670115316,95L74.19607638410972,95L74.37869631386093,95L74.56139868356593,95L74.74431507226426,95L74.9269827197227,95L75.10964569693746,95L118.42123224359389,95L118.60385054891252,95L118.78651149558655,95L118.96935316038588,95L119.15219096715782,95L119.33481008469273,95L119.51758535081007,95L119.70046295618039,95L119.88302400025032,95L120.06586058869782,95L120.24858387297238,95L120.43135040776457,95L120.61413643574778,95L120.7968729185371,100L120.97971255279572,100L121.16246893488422,100L121.34532643790128,100L121.528030838147,100L121.71066335725077,100L121.89339131176902,100L122.2588776789165,92.5L122.44162979686948,92.5L122.62445034404517,92.5L122.80709159447409,92.5L122.9898487887789,92.5L123.1726975604708,92.5L123.35543302798975,92.5L123.53812219917998,92.5L123.72091350656912,92.5L123.90361628238226,100L124.0864136813936,100L124.26912640685633,100L124.4520517299339,100L124.63463084581636,100L124.81741423409663,100L125.00014787412894,100L125.18299867636156,100L125.36583100067352,100L125.54853113678371,112.5L125.73106822047298,112.5L125.91395272968181,112.5L126.09669408576887,112.5L126.2793367575763,112.5L126.46219121478228,112.5L126.64475875658255,112.5L126.82762255427588,112.5L127.01028979562618,112.5L127.19314039480473,112.5L127.37580946364172,112.5L127.55851894023925,112.5L127.74142111515246,112.5L139.07183312983761,122.50000000000001L139.2544959039983,122.50000000000001L139.43735036120424,122.50000000000001L139.62010978910388,130L139.80288931935675,130L139.98560752727948,130L140.16846096921506,130L140.35115359232452,130L140.5337542319388,130L140.7164165999913,130L140.89920689211007,130L141.08204205917906,130L141.26480920313347,130L141.44759847998188,130L141.63028582368545,130L141.81293235352027,130L141.99576264729149,132.5L142.1784512093195,132.5L142.36138851258738,132.5L142.72691569360362,132.5L142.90960303730722,132.5L143.0923070314448,132.5L143.27509976021244,132.5L143.45773106099173,132.5L143.6404003328828,132.5L143.82338413553347,132.5L144.00594253990045,132.5L144.1888830920335,132.5L144.37146870564632,132.5L144.55419077159644,132.5L144.7369497933879,132.5L144.9196279996582,132.5L145.10235879693346,132.5L145.28508533007317,132.5L171.41825340987944,132.5L171.60085709530478,132.5L171.78376373740758,132.5L171.96646346740962,132.5L172.14923142358032,132.5L172.3320194821043,132.5L172.5147277403774,132.5L172.57015744132616,132.5L500,200L500,200L172.57015744132616,92.5L172.5147277403774,92.5L172.3320194821043,92.5L172.14923142358032,92.5L171.96646346740962,92.5L171.78376373740758,92.5L171.60085709530478,92.5L171.41825340987944,92.5L145.28508533007317,87.5L145.10235879693346,87.5L144.9196279996582,87.5L144.7369497933879,87.5L144.55419077159644,87.5L144.37146870564632,82.5L144.1888830920335,82.5L144.00594253990045,82.5L143.82338413553347,82.5L143.6404003328828,82.5L143.45773106099173,82.5L143.27509976021244,82.5L143.0923070314448,82.5L142.90960303730722,82.5L142.72691569360362,82.5L142.36138851258738,82.5L142.1784512093195,82.5L141.99576264729149,82.5L141.81293235352027,67.5L141.63028582368545,67.5L141.44759847998188,67.5L141.26480920313347,67.5L141.08204205917906,67.5L140.89920689211007,52.5L140.7164165999913,52.5L140.5337542319388,52.5L140.35115359232452,52.5L140.16846096921506,52.5L139.98560752727948,52.5L139.80288931935675,52.5L139.62010978910388,52.5L139.43735036120424,60.00000000000001L139.2544959039983,60.00000000000001L139.07183312983761,60.00000000000001L127.74142111515246,47.5L127.55851894023925,47.5L127.37580946364172,47.5L127.19314039480473,47.5L127.01028979562618,47.5L126.82762255427588,47.5L126.64475875658255,47.5L126.46219121478228,47.5L126.2793367575763,47.5L126.09669408576887,47.5L125.91395272968181,47.5L125.73106822047298,47.5L125.54853113678371,47.5L125.36583100067352,42.50000000000001L125.18299867636156,42.50000000000001L125.00014787412894,42.50000000000001L124.81741423409663,42.50000000000001L124.63463084581636,42.50000000000001L124.4520517299339,42.50000000000001L124.26912640685633,42.50000000000001L124.0864136813936,42.50000000000001L123.90361628238226,42.50000000000001L123.72091350656912,42.50000000000001L123.53812219917998,42.50000000000001L123.35543302798975,42.50000000000001L123.1726975604708,42.50000000000001L122.9898487887789,42.50000000000001L122.80709159447409,42.50000000000001L122.62445034404517,42.50000000000001L122.44162979686948,42.50000000000001L122.2588776789165,42.50000000000001L121.89339131176902,50L121.71066335725077,50L121.528030838147,50L121.34532643790128,50L121.16246893488422,50L120.97971255279572,50L120.7968729185371,50L120.61413643574778,44.99999999999999L120.43135040776457,44.99999999999999L120.24858387297238,44.99999999999999L120.06586058869782,44.99999999999999L119.88302400025032,44.99999999999999L119.70046295618039,44.99999999999999L119.51758535081007,44.99999999999999L119.33481008469273,44.99999999999999L119.15219096715782,44.99999999999999L118.96935316038588,44.99999999999999L118.78651149558655,44.99999999999999L118.60385054891252,44.99999999999999L118.42123224359389,44.99999999999999L75.10964569693746,44.99999999999999L74.9269827197227,44.99999999999999L74.74431507226426,44.99999999999999L74.56139868356593,44.99999999999999L74.37869631386093,44.99999999999999L74.19607638410972,44.99999999999999L74.01328670115316,44.99999999999999L73.83042737064946,44.99999999999999L73.6477276406474,44.99999999999999L73.464885772794,44.99999999999999L73.2822520353658,44.99999999999999L73.09965606599525,44.99999999999999L72.91679470495082,44.99999999999999L72.73400035175057,44.99999999999999L72.36853104114525,44.99999999999999L72.18574684064868,44.99999999999999L72.00299269215498,44.99999999999999L71.82026311320413,44.99999999999999L71.63749799979047,44.99999999999999L71.45485959211858,44.99999999999999L71.27201346012964,44.99999999999999L71.08921057865831,44.99999999999999L70.9065106456022,39.99999999999999L70.72369050453466,39.99999999999999L70.54096762636824,39.99999999999999L70.35834099583262,39.99999999999999L70.17561994515287,39.99999999999999L69.99276812764985,39.99999999999999L69.6271946503049,39.99999999999999L69.4444541064341,39.99999999999999L69.26184290800805,39.99999999999999L69.07896773928661,39.99999999999999L68.89620303198109,39.99999999999999L68.7134555842718,39.99999999999999L68.53089149439077,39.99999999999999L68.34807094721506,39.99999999999999L68.16552614747101,39.99999999999999L67.98250457676266,39.99999999999999L67.79970372583209,39.99999999999999L57.56578309818707,39.99999999999999L57.38316255927364,39.99999999999999L57.20034891593644,39.99999999999999L57.01763943933887,39.99999999999999L56.83473421861458,39.99999999999999L56.65208768877975,39.99999999999999L56.469455169675996,39.99999999999999L56.286578782630116,39.99999999999999L56.10388676868286,39.99999999999999L55.921063378750134,39.99999999999999L55.73837867474952,39.99999999999999L55.55568605164004,39.99999999999999L55.37277027210393,39.99999999999999L55.1901032338077,39.99999999999999L55.007552545495514,39.99999999999999L54.824723876156874,39.99999999999999L54.641928710740345,39.99999999999999L54.45915588127188,39.99999999999999L54.276442140538784,39.99999999999999L54.09366667136737,39.99999999999999L53.910926939712866,39.99999999999999L53.72804486715294,39.99999999999999L53.54546351767567,39.99999999999999L51.71800223909757,39.99999999999999L51.53519346905813,39.99999999999999L51.352472012270226,39.99999999999999L51.16966385139301,39.99999999999999L50.986906047925984,39.99999999999999L50.804154336081154,39.99999999999999L50.62146496183685,39.99999999999999L50.43853821738078,39.99999999999999L50.25596966031013,39.99999999999999L50.07312271610489,39.99999999999999L49.890336282013514,39.99999999999999L49.707677771988365,39.99999999999999L49.52486900194893,39.99999999999999L49.34212480310481,39.99999999999999L49.15933430793197,39.99999999999999L48.9767117384778,39.99999999999999L48.793888348545075,39.99999999999999L48.61107165939677,39.99999999999999L48.42845619683518,39.99999999999999L48.245615141198066,39.99999999999999L40.02207766328946,39.99999999999999L39.83920675870357,39.99999999999999L39.656570584626486,39.99999999999999L39.47368729374212,39.99999999999999L39.29094106435726,39.99999999999999L39.108163158536975,39.99999999999999L38.9254179444225,39.99999999999999L38.74277588177729,39.99999999999999L38.56004691198868,39.99999999999999L38.37727327030393,39.99999999999999L38.19440175655581,39.99999999999999L38.011731875502555,39.99999999999999L37.828860158700365,39.99999999999999L37.64627921533124,39.99999999999999L37.46360364876393,39.99999999999999L37.28079569094078,39.99999999999999L37.097989763658354,39.99999999999999L36.91525328086903,39.99999999999999L36.732468268156175,39.99999999999999L36.5498343276739,39.99999999999999L36.36700200336195,39.99999999999999L36.184217396757234,39.99999999999999L36.00141492139406,39.99999999999999L35.81885083151303,39.99999999999999L35.63594520468059,39.99999999999999L35.45325055103038,39.99999999999999L35.270589807410424,39.99999999999999L35.0877365685289,39.99999999999999L34.9051371472391,39.99999999999999L34.72227010068061,39.99999999999999L34.539580117274085,39.99999999999999L34.35675916399024,39.99999999999999L34.173968059655174,39.99999999999999L33.99119360575413,39.99999999999999L33.80858037678734,39.99999999999999L33.625887144515644,44.99999999999999L33.44301461549716,44.99999999999999L33.260317322144,44.99999999999999L33.077612921898265,44.99999999999999L32.16372846914864,44.99999999999999L30.701777111990545,44.99999999999999L21.92978956663702,44.99999999999999L21.1502328964229,44.99999999999999L21.101449561403708,44.99999999999999L21.052802069559604,44.99999999999999L21.00392553272074,44.99999999999999L20.95530179820322,44.99999999999999L20.906518869292174,44.99999999999999L20.857736752597425,44.99999999999999L20.809093321834787,44.99999999999999L20.76024927364766,44.99999999999999L20.711621478048674,44.99999999999999L20.662886672953018,44.99999999999999L20.614071255390236,44.99999999999999L20.565430464330554,44.99999999999999L20.516530373219172,44.99999999999999L20.46798846949322,44.99999999999999L19.688207018419877,44.99999999999999L19.639525819599594,44.99999999999999L19.590641363651866,44.99999999999999L19.541979861076697,44.99999999999999L19.493147590025824,44.99999999999999L19.444440603338222,44.99999999999999L19.395777273276394,44.99999999999999L19.347118004296036,44.99999999999999L19.298422591690617,44.99999999999999L19.24964656661807,44.99999999999999L19.20074403885781,44.99999999999999L19.006082393393488,44.99999999999999L17.544003924385468,44.99999999999999L16.082027591576345,39.99999999999999L14.619911354510675,39.99999999999999L13.157997359302081,39.99999999999999L4.385919860994055,39.99999999999999L2.9239041356947015,39.99999999999999L1.462058569708834,39.99999999999999L0,39.99999999999999Z" fill="#EEDD49"/></g></g><path class="foreground" aria-hidden="true" d="" display="none"/></g><g transform="translate(0,0)"><path class="background" aria-hidden="true" d="M0,0h0v0h0Z"/><g><g class="mark-area role-mark" role="graphics-symbol" aria-roledescription="area mark container"><path d="M0,39.99999999999999L1.462058569708834,39.99999999999999L2.9239041356947015,39.99999999999999L4.385919860994055,39.99999999999999L13.157997359302081,39.99999999999999L14.619911354510675,39.99999999999999L16.082027591576345,39.99999999999999L17.544003924385468,44.99999999999999L19.006082393393488,44.99999999999999L19.20074403885781,44.99999999999999L19.24964656661807,44.99999999999999L19.298422591690617,44.99999999999999L19.347118004296036,44.99999999999999L19.395777273276394,44.99999999999999L19.444440603338222,44.99999999999999L19.493147590025824,44.99999999999999L19.541979861076697,44.99999999999999L19.590641363651866,44.99999999999999L19.639525819599594,44.99999999999999L19.688207018419877,44.99999999999999L20.46798846949322,44.99999999999999L20.516530373219172,44.99999999999999L20.565430464330554,44.99999999999999L20.614071255390236,44.99999999999999L20.662886672953018,44.99999999999999L20.711621478048674,44.99999999999999L20.76024927364766,44.99999999999999L20.809093321834787,44.99999999999999L20.857736752597425,44.99999999999999L20.906518869292174,44.99999999999999L20.95530179820322,44.99999999999999L21.00392553272074,44.99999999999999L21.052802069559604,44.99999999999999L21.101449561403708,44.99999999999999L21.1502328964229,44.99999999999999L21.92978956663702,44.99999999999999L30.701777111990545,44.99999999999999L32.16372846914864,44.99999999999999L33.077612921898265,44.99999999999999L33.260317322144,44.99999999999999L33.44301461549716,44.99999999999999L33.625887144515644,44.99999999999999L33.80858037678734,39.99999999999999L33.99119360575413,39.99999999999999L34.173968059655174,39.99999999999999L34.35675916399024,39.99999999999999L34.539580117274085,39.99999999999999L34.72227010068061,39.99999999999999L34.9051371472391,39.99999999999999L35.0877365685289,39.99999999999999L35.270589807410424,39.99999999999999L35.45325055103038,39.99999999999999L35.63594520468059,39.99999999999999L35.81885083151303,39.99999999999999L36.00141492139406,39.99999999999999L36.184217396757234,39.99999999999999L36.36700200336195,39.99999999999999L36.5498343276739,39.99999999999999L36.732468268156175,39.99999999999999L36.91525328086903,39.99999999999999L37.097989763658354,39.99999999999999L37.28079569094078,39.99999999999999L37.46360364876393,39.99999999999999L37.64627921533124,39.99999999999999L37.828860158700365,39.99999999999999L38.011731875502555,39.99999999999999L38.19440175655581,39.99999999999999L38.37727327030393,39.99999999999999L38.56004691198868,39.99999999999999L38.74277588177729,39.99999999999999L38.9254179444225,39.99999999999999L39.108163158536975,39.99999999999999L39.29094106435726,39.99999999999999L39.47368729374212,39.99999999999999L39.656570584626486,39.99999999999999L39.83920675870357,39.99999999999999L40.02207766328946,39.99999999999999L48.245615141198066,39.99999999999999L48.42845619683518,39.99999999999999L48.61107165939677,39.99999999999999L48.793888348545075,39.99999999999999L48.9767117384778,39.99999999999999L49.15933430793197,39.99999999999999L49.34212480310481,39.99999999999999L49.52486900194893,39.99999999999999L49.707677771988365,39.99999999999999L49.890336282013514,39.99999999999999L50.07312271610489,39.99999999999999L50.25596966031013,39.99999999999999L50.43853821738078,39.99999999999999L50.62146496183685,39.99999999999999L50.804154336081154,39.99999999999999L50.986906047925984,39.99999999999999L51.16966385139301,39.99999999999999L51.352472012270226,39.99999999999999L51.53519346905813,39.99999999999999L51.71800223909757,39.99999999999999L53.54546351767567,39.99999999999999L53.72804486715294,39.99999999999999L53.910926939712866,39.99999999999999L54.09366667136737,39.99999999999999L54.276442140538784,39.99999999999999L54.45915588127188,39.99999999999999L54.641928710740345,39.99999999999999L54.824723876156874,39.99999999999999L55.007552545495514,39.99999999999999L55.1901032338077,39.99999999999999L55.37277027210393,39.99999999999999L55.55568605164004,39.99999999999999L55.73837867474952,39.99999999999999L55.921063378750134,39.99999999999999L56.10388676868286,39.99999999999999L56.286578782630116,39.99999999999999L56.469455169675996,39.99999999999999L56.65208768877975,39.99999999999999L56.83473421861458,39.99999999999999L57.01763943933887,39.99999999999999L57.20034891593644,39.99999999999999L57.38316255927364,39.99999999999999L57.56578309818707,39.99999999999999L67.79970372583209,39.99999999999999L67.98250457676266,39.99999999999999L68.16552614747101,39.99999999999999L68.34807094721506,39.99999999999999L68.53089149439077,39.99999999999999L68.7134555842718,39.99999999999999L68.89620303198109,39.99999999999999L69.07896773928661,39.99999999999999L69.26184290800805,39.99999999999999L69.4444541064341,39.99999999999999L69.6271946503049,39.99999999999999L69.99276812764985,39.99999999999999L70.17561994515287,39.99999999999999L70.35834099583262,39.99999999999999L70.54096762636824,39.99999999999999L70.72369050453466,39.99999999999999L70.9065106456022,39.99999999999999L71.08921057865831,44.99999999999999L71.27201346012964,44.99999999999999L71.45485959211858,44.99999999999999L71.63749799979047,44.99999999999999L71.82026311320413,44.99999999999999L72.00299269215498,44.99999999999999L72.18574684064868,44.99999999999999L72.36853104114525,44.99999999999999L72.73400035175057,44.99999999999999L72.91679470495082,44.99999999999999L73.09965606599525,44.99999999999999L73.2822520353658,44.99999999999999L73.464885772794,44.99999999999999L73.6477276406474,44.99999999999999L73.83042737064946,44.99999999999999L74.01328670115316,44.99999999999999L74.19607638410972,44.99999999999999L74.37869631386093,44.99999999999999L74.56139868356593,44.99999999999999L74.74431507226426,44.99999999999999L74.9269827197227,44.99999999999999L75.10964569693746,44.99999999999999L118.42123224359389,44.99999999999999L118.60385054891252,44.99999999999999L118.78651149558655,44.99999999999999L118.96935316038588,44.99999999999999L119.15219096715782,44.99999999999999L119.33481008469273,44.99999999999999L119.51758535081007,44.99999999999999L119.70046295618039,44.99999999999999L119.88302400025032,44.99999999999999L120.06586058869782,44.99999999999999L120.24858387297238,44.99999999999999L120.43135040776457,44.99999999999999L120.61413643574778,44.99999999999999L120.7968729185371,50L120.97971255279572,50L121.16246893488422,50L121.34532643790128,50L121.528030838147,50L121.71066335725077,50L121.89339131176902,50L122.2588776789165,42.50000000000001L122.44162979686948,42.50000000000001L122.62445034404517,42.50000000000001L122.80709159447409,42.50000000000001L122.9898487887789,42.50000000000001L123.1726975604708,42.50000000000001L123.35543302798975,42.50000000000001L123.53812219917998,42.50000000000001L123.72091350656912,42.50000000000001L123.90361628238226,42.50000000000001L124.0864136813936,42.50000000000001L124.26912640685633,42.50000000000001L124.4520517299339,42.50000000000001L124.63463084581636,42.50000000000001L124.81741423409663,42.50000000000001L125.00014787412894,42.50000000000001L125.18299867636156,42.50000000000001L125.36583100067352,42.50000000000001L125.54853113678371,47.50000000000001L125.73106822047298,47.50000000000001L125.91395272968181,47.50000000000001L126.09669408576887,47.50000000000001L126.2793367575763,47.50000000000001L126.46219121478228,47.50000000000001L126.64475875658255,47.50000000000001L126.82762255427588,47.50000000000001L127.01028979562618,47.50000000000001L127.19314039480473,47.50000000000001L127.37580946364172,47.50000000000001L127.55851894023925,47.50000000000001L127.74142111515246,47.50000000000001L139.07183312983761,60.00000000000001L139.2544959039983,60.00000000000001L139.43735036120424,60.00000000000001L139.62010978910388,52.49999999999999L139.80288931935675,52.49999999999999L139.98560752727948,52.49999999999999L140.16846096921506,52.49999999999999L140.35115359232452,52.49999999999999L140.5337542319388,52.49999999999999L140.7164165999913,52.49999999999999L140.89920689211007,52.49999999999999L141.08204205917906,67.5L141.26480920313347,67.5L141.44759847998188,67.5L141.63028582368545,67.5L141.81293235352027,67.5L141.99576264729149,82.5L142.1784512093195,82.5L142.36138851258738,82.5L142.72691569360362,82.5L142.90960303730722,82.5L143.0923070314448,82.5L143.27509976021244,82.5L143.45773106099173,82.5L143.6404003328828,82.5L143.82338413553347,82.5L144.00594253990045,82.5L144.1888830920335,82.5L144.37146870564632,82.5L144.55419077159644,87.5L144.7369497933879,87.5L144.9196279996582,87.5L145.10235879693346,87.5L145.28508533007317,87.5L171.41825340987944,92.5L171.60085709530478,92.5L171.78376373740758,92.5L171.96646346740962,92.5L172.14923142358032,92.5L172.3320194821043,92.5L172.5147277403774,92.5L172.57015744132616,92.5L500,200L500,200L172.57015744132616,67.5L172.5147277403774,67.5L172.3320194821043,67.5L172.14923142358032,67.5L171.96646346740962,67.5L171.78376373740758,67.5L171.60085709530478,67.5L171.41825340987944,67.5L145.28508533007317,62.5L145.10235879693346,62.5L144.9196279996582,62.5L144.7369497933879,62.5L144.55419077159644,62.5L144.37146870564632,62.5L144.1888830920335,62.5L144.00594253990045,62.5L143.82338413553347,62.5L143.6404003328828,62.5L143.45773106099173,62.5L143.27509976021244,62.5L143.0923070314448,62.5L142.90960303730722,50L142.72691569360362,50L142.36138851258738,50L142.1784512093195,50L141.99576264729149,50L141.81293235352027,30L141.63028582368545,30L141.44759847998188,30L141.26480920313347,30L141.08204205917906,30L140.89920689211007,17.500000000000007L140.7164165999913,17.500000000000007L140.5337542319388,17.500000000000007L140.35115359232452,17.500000000000007L140.16846096921506,17.500000000000007L139.98560752727948,17.500000000000007L139.80288931935675,17.500000000000007L139.62010978910388,17.500000000000007L139.43735036120424,17.500000000000007L139.2544959039983,17.500000000000007L139.07183312983761,17.500000000000007L127.74142111515246,12.5L127.55851894023925,12.5L127.37580946364172,12.5L127.19314039480473,12.5L127.01028979562618,12.5L126.82762255427588,12.5L126.64475875658255,12.5L126.46219121478228,12.5L126.2793367575763,12.5L126.09669408576887,12.5L125.91395272968181,12.5L125.73106822047298,12.5L125.54853113678371,12.5L125.36583100067352,12.5L125.18299867636156,12.5L125.00014787412894,12.5L124.81741423409663,12.5L124.63463084581636,12.5L124.4520517299339,12.5L124.26912640685633,12.5L124.0864136813936,12.5L123.90361628238226,12.5L123.72091350656912,12.5L123.53812219917998,12.5L123.35543302798975,12.5L123.1726975604708,12.5L122.9898487887789,12.5L122.80709159447409,12.5L122.62445034404517,12.5L122.44162979686948,12.5L122.2588776789165,12.5L121.89339131176902,19.999999999999996L121.71066335725077,19.999999999999996L121.528030838147,19.999999999999996L121.34532643790128,19.999999999999996L121.16246893488422,19.999999999999996L120.97971255279572,19.999999999999996L120.7968729185371,19.999999999999996L120.61413643574778,19.999999999999996L120.43135040776457,19.999999999999996L120.24858387297238,19.999999999999996L120.06586058869782,19.999999999999996L119.88302400025032,19.999999999999996L119.70046295618039,19.999999999999996L119.51758535081007,19.999999999999996L119.33481008469273,19.999999999999996L119.15219096715782,19.999999999999996L118.96935316038588,19.999999999999996L118.78651149558655,19.999999999999996L118.60385054891252,19.999999999999996L118.42123224359389,19.999999999999996L75.10964569693746,19.999999999999996L74.9269827197227,19.999999999999996L74.74431507226426,19.999999999999996L74.56139868356593,19.999999999999996L74.37869631386093,19.999999999999996L74.19607638410972,19.999999999999996L74.01328670115316,19.999999999999996L73.83042737064946,19.999999999999996L73.6477276406474,19.999999999999996L73.464885772794,19.999999999999996L73.2822520353658,19.999999999999996L73.09965606599525,19.999999999999996L72.91679470495082,19.999999999999996L72.73400035175057,19.999999999999996L72.36853104114525,19.999999999999996L72.18574684064868,19.999999999999996L72.00299269215498,19.999999999999996L71.82026311320413,19.999999999999996L71.63749799979047,19.999999999999996L71.45485959211858,19.999999999999996L71.27201346012964,19.999999999999996L71.08921057865831,19.999999999999996L70.9065106456022,19.999999999999996L70.72369050453466,19.999999999999996L70.54096762636824,19.999999999999996L70.35834099583262,19.999999999999996L70.17561994515287,19.999999999999996L69.99276812764985,19.999999999999996L69.6271946503049,19.999999999999996L69.4444541064341,19.999999999999996L69.26184290800805,19.999999999999996L69.07896773928661,19.999999999999996L68.89620303198109,19.999999999999996L68.7134555842718,19.999999999999996L68.53089149439077,19.999999999999996L68.34807094721506,19.999999999999996L68.16552614747101,19.999999999999996L67.98250457676266,19.999999999999996L67.79970372583209,19.999999999999996L57.56578309818707,19.999999999999996L57.38316255927364,19.999999999999996L57.20034891593644,19.999999999999996L57.01763943933887,19.999999999999996L56.83473421861458,19.999999999999996L56.65208768877975,19.999999999999996L56.469455169675996,19.999999999999996L56.286578782630116,19.999999999999996L56.10388676868286,19.999999999999996L55.921063378750134,19.999999999999996L55.73837867474952,19.999999999999996L55.55568605164004,19.999999999999996L55.37277027210393,19.999999999999996L55.1901032338077,19.999999999999996L55.007552545495514,19.999999999999996L54.824723876156874,19.999999999999996L54.641928710740345,19.999999999999996L54.45915588127188,19.999999999999996L54.276442140538784,19.999999999999996L54.09366667136737,19.999999999999996L53.910926939712866,19.999999999999996L53.72804486715294,19.999999999999996L53.54546351767567,19.999999999999996L51.71800223909757,19.999999999999996L51.53519346905813,19.999999999999996L51.352472012270226,19.999999999999996L51.16966385139301,19.999999999999996L50.986906047925984,19.999999999999996L50.804154336081154,19.999999999999996L50.62146496183685,19.999999999999996L50.43853821738078,19.999999999999996L50.25596966031013,19.999999999999996L50.07312271610489,19.999999999999996L49.890336282013514,19.999999999999996L49.707677771988365,19.999999999999996L49.52486900194893,19.999999999999996L49.34212480310481,19.999999999999996L49.15933430793197,19.999999999999996L48.9767117384778,19.999999999999996L48.793888348545075,19.999999999999996L48.61107165939677,19.999999999999996L48.42845619683518,19.999999999999996L48.245615141198066,19.999999999999996L40.02207766328946,19.999999999999996L39.83920675870357,19.999999999999996L39.656570584626486,19.999999999999996L39.47368729374212,19.999999999999996L39.29094106435726,19.999999999999996L39.108163158536975,19.999999999999996L38.9254179444225,19.999999999999996L38.74277588177729,19.999999999999996L38.56004691198868,19.999999999999996L38.37727327030393,19.999999999999996L38.19440175655581,19.999999999999996L38.011731875502555,19.999999999999996L37.828860158700365,19.999999999999996L37.64627921533124,19.999999999999996L37.46360364876393,19.999999999999996L37.28079569094078,19.999999999999996L37.097989763658354,19.999999999999996L36.91525328086903,19.999999999999996L36.732468268156175,19.999999999999996L36.5498343276739,19.999999999999996L36.36700200336195,19.999999999999996L36.184217396757234,19.999999999999996L36.00141492139406,19.999999999999996L35.81885083151303,19.999999999999996L35.63594520468059,19.999999999999996L35.45325055103038,19.999999999999996L35.270589807410424,19.999999999999996L35.0877365685289,19.999999999999996L34.9051371472391,19.999999999999996L34.72227010068061,19.999999999999996L34.539580117274085,19.999999999999996L34.35675916399024,19.999999999999996L34.173968059655174,19.999999999999996L33.99119360575413,19.999999999999996L33.80858037678734,19.999999999999996L33.625887144515644,25L33.44301461549716,25L33.260317322144,25L33.077612921898265,25L32.16372846914864,25L30.701777111990545,25L21.92978956663702,25L21.1502328964229,25L21.101449561403708,25L21.052802069559604,25L21.00392553272074,25L20.95530179820322,25L20.906518869292174,25L20.857736752597425,25L20.809093321834787,25L20.76024927364766,25L20.711621478048674,25L20.662886672953018,25L20.614071255390236,25L20.565430464330554,25L20.516530373219172,25L20.46798846949322,25L19.688207018419877,25L19.639525819599594,25L19.590641363651866,25L19.541979861076697,25L19.493147590025824,25L19.444440603338222,25L19.395777273276394,25L19.347118004296036,25L19.298422591690617,25L19.24964656661807,25L19.20074403885781,25L19.006082393393488,25L17.544003924385468,25L16.082027591576345,27.499999999999993L14.619911354510675,27.499999999999993L13.157997359302081,27.499999999999993L4.385919860994055,27.499999999999993L2.9239041356947015,27.499999999999993L1.462058569708834,27.499999999999993L0,27.499999999999993Z" fill="#49EE49"/></g></g><path class="foreground" aria-hidden="true" d="" display="none"/></g><g transform="translate(0,0)"><path class="background" aria-hidden="true" d="M0,0h0v0h0Z"/><g><g class="mark-area role-mark" role="graphics-symbol" aria-roledescription="area mark container"><path d="M0,27.499999999999993L1.462058569708834,27.499999999999993L2.9239041356947015,27.499999999999993L4.385919860994055,27.499999999999993L13.157997359302081,27.499999999999993L14.619911354510675,27.499999999999993L16.082027591576345,27.499999999999993L17.544003924385468,25L19.006082393393488,25L19.20074403885781,25L19.24964656661807,25L19.298422591690617,25L19.347118004296036,25L19.395777273276394,25L19.444440603338222,25L19.493147590025824,25L19.541979861076697,25L19.590641363651866,25L19.639525819599594,25L19.688207018419877,25L20.46798846949322,25L20.516530373219172,25L20.565430464330554,25L20.614071255390236,25L20.662886672953018,25L20.711621478048674,25L20.76024927364766,25L20.809093321834787,25L20.857736752597425,25L20.906518869292174,25L20.95530179820322,25L21.00392553272074,25L21.052802069559604,25L21.101449561403708,25L21.1502328964229,25L21.92978956663702,25L30.701777111990545,25L32.16372846914864,25L33.077612921898265,25L33.260317322144,25L33.44301461549716,25L33.625887144515644,25L33.80858037678734,19.999999999999996L33.99119360575413,19.999999999999996L34.173968059655174,19.999999999999996L34.35675916399024,19.999999999999996L34.539580117274085,19.999999999999996L34.72227010068061,19.999999999999996L34.9051371472391,19.999999999999996L35.0877365685289,19.999999999999996L35.270589807410424,19.999999999999996L35.45325055103038,19.999999999999996L35.63594520468059,19.999999999999996L35.81885083151303,19.999999999999996L36.00141492139406,19.999999999999996L36.184217396757234,19.999999999999996L36.36700200336195,19.999999999999996L36.5498343276739,19.999999999999996L36.732468268156175,19.999999999999996L36.91525328086903,19.999999999999996L37.097989763658354,19.999999999999996L37.28079569094078,19.999999999999996L37.46360364876393,19.999999999999996L37.64627921533124,19.999999999999996L37.828860158700365,19.999999999999996L38.011731875502555,19.999999999999996L38.19440175655581,19.999999999999996L38.37727327030393,19.999999999999996L38.56004691198868,19.999999999999996L38.74277588177729,19.999999999999996L38.9254179444225,19.999999999999996L39.108163158536975,19.999999999999996L39.29094106435726,19.999999999999996L39.47368729374212,19.999999999999996L39.656570584626486,19.999999999999996L39.83920675870357,19.999999999999996L40.02207766328946,19.999999999999996L48.245615141198066,19.999999999999996L48.42845619683518,19.999999999999996L48.61107165939677,19.999999999999996L48.793888348545075,19.999999999999996L48.9767117384778,19.999999999999996L49.15933430793197,19.999999999999996L49.34212480310481,19.999999999999996L49.52486900194893,19.999999999999996L49.707677771988365,19.999999999999996L49.890336282013514,19.999999999999996L50.07312271610489,19.999999999999996L50.25596966031013,19.999999999999996L50.43853821738078,19.999999999999996L50.62146496183685,19.999999999999996L50.804154336081154,19.999999999999996L50.986906047925984,19.999999999999996L51.16966385139301,19.999999999999996L51.352472012270226,19.999999999999996L51.53519346905813,19.999999999999996L51.71800223909757,19.999999999999996L53.54546351767567,19.999999999999996L53.72804486715294,19.999999999999996L53.910926939712866,19.999999999999996L54.09366667136737,19.999999999999996L54.276442140538784,19.999999999999996L54.45915588127188,19.999999999999996L54.641928710740345,19.999999999999996L54.824723876156874,19.999999999999996L55.007552545495514,19.999999999999996L55.1901032338077,19.999999999999996L55.37277027210393,19.999999999999996L55.55568605164004,19.999999999999996L55.73837867474952,19.999999999999996L55.921063378750134,19.999999999999996L56.10388676868286,19.999999999999996L56.286578782630116,19.999999999999996L56.469455169675996,19.999999999999996L56.65208768877975,19.999999999999996L56.83473421861458,19.999999999999996L57.01763943933887,19.999999999999996L57.20034891593644,19.999999999999996L57.38316255927364,19.999999999999996L57.56578309818707,19.999999999999996L67.79970372583209,19.999999999999996L67.98250457676266,19.999999999999996L68.16552614747101,19.999999999999996L68.34807094721506,19.999999999999996L68.53089149439077,19.999999999999996L68.7134555842718,19.999999999999996L68.89620303198109,19.999999999999996L69.07896773928661,19.999999999999996L69.26184290800805,19.999999999999996L69.4444541064341,19.999999999999996L69.6271946503049,19.999999999999996L69.99276812764985,19.999999999999996L70.17561994515287,19.999999999999996L70.35834099583262,19.999999999999996L70.54096762636824,19.999999999999996L70.72369050453466,19.999999999999996L70.9065106456022,19.999999999999996L71.08921057865831,19.999999999999996L71.27201346012964,19.999999999999996L71.45485959211858,19.999999999999996L71.63749799979047,19.999999999999996L71.82026311320413,19.999999999999996L72.00299269215498,19.999999999999996L72.18574684064868,19.999999999999996L72.36853104114525,19.999999999999996L72.73400035175057,19.999999999999996L72.91679470495082,19.999999999999996L73.09965606599525,19.999999999999996L73.2822520353658,19.999999999999996L73.464885772794,19.999999999999996L73.6477276406474,19.999999999999996L73.83042737064946,19.999999999999996L74.01328670115316,19.999999999999996L74.19607638410972,19.999999999999996L74.37869631386093,19.999999999999996L74.56139868356593,19.999999999999996L74.74431507226426,19.999999999999996L74.9269827197227,19.999999999999996L75.10964569693746,19.999999999999996L118.42123224359389,19.999999999999996L118.60385054891252,19.999999999999996L118.78651149558655,19.999999999999996L118.96935316038588,19.999999999999996L119.15219096715782,19.999999999999996L119.33481008469273,19.999999999999996L119.51758535081007,19.999999999999996L119.70046295618039,19.999999999999996L119.88302400025032,19.999999999999996L120.06586058869782,19.999999999999996L120.24858387297238,19.999999999999996L120.43135040776457,19.999999999999996L120.61413643574778,19.999999999999996L120.7968729185371,19.999999999999996L120.97971255279572,19.999999999999996L121.16246893488422,19.999999999999996L121.34532643790128,19.999999999999996L121.528030838147,19.999999999999996L121.71066335725077,19.999999999999996L121.89339131176902,19.999999999999996L122.2588776789165,12.5L122.44162979686948,12.5L122.62445034404517,12.5L122.80709159447409,12.5L122.9898487887789,12.5L123.1726975604708,12.5L123.35543302798975,12.5L123.53812219917998,12.5L123.72091350656912,12.5L123.90361628238226,12.5L124.0864136813936,12.5L124.26912640685633,12.5L124.4520517299339,12.5L124.63463084581636,12.5L124.81741423409663,12.5L125.00014787412894,12.5L125.18299867636156,12.5L125.36583100067352,12.5L125.54853113678371,12.5L125.73106822047298,12.5L125.91395272968181,12.5L126.09669408576887,12.5L126.2793367575763,12.5L126.46219121478228,12.5L126.64475875658255,12.5L126.82762255427588,12.5L127.01028979562618,12.5L127.19314039480473,12.5L127.37580946364172,12.5L127.55851894023925,12.5L127.74142111515246,12.5L139.07183312983761,17.500000000000004L139.2544959039983,17.500000000000004L139.43735036120424,17.500000000000004L139.62010978910388,17.500000000000004L139.80288931935675,17.500000000000004L139.98560752727948,17.500000000000004L140.16846096921506,17.500000000000004L140.35115359232452,17.500000000000004L140.5337542319388,17.500000000000004L140.7164165999913,17.500000000000004L140.89920689211007,17.500000000000004L141.08204205917906,30.000000000000004L141.26480920313347,30.000000000000004L141.44759847998188,30.000000000000004L141.63028582368545,30.000000000000004L141.81293235352027,30.000000000000004L141.99576264729149,50L142.1784512093195,50L142.36138851258738,50L142.72691569360362,50L142.90960303730722,50L143.0923070314448,62.5L143.27509976021244,62.5L143.45773106099173,62.5L143.6404003328828,62.5L143.82338413553347,62.5L144.00594253990045,62.5L144.1888830920335,62.5L144.37146870564632,62.5L144.55419077159644,62.5L144.7369497933879,62.5L144.9196279996582,62.5L145.10235879693346,62.5L145.28508533007317,62.5L171.41825340987944,67.5L171.60085709530478,67.5L171.78376373740758,67.5L171.96646346740962,67.5L172.14923142358032,67.5L172.3320194821043,67.5L172.5147277403774,67.5L172.57015744132616,67.5L500,200L500,5L172.57015744132616,5.000000000000007L172.5147277403774,5.000000000000007L172.3320194821043,5.000000000000007L172.14923142358032,5.000000000000007L171.96646346740962,5.000000000000007L171.78376373740758,5.000000000000007L171.60085709530478,5.000000000000007L171.41825340987944,5.000000000000007L145.28508533007317,5.000000000000007L145.10235879693346,5.000000000000007L144.9196279996582,5.000000000000007L144.7369497933879,5.000000000000007L144.55419077159644,5.000000000000007L144.37146870564632,5.000000000000007L144.1888830920335,5.000000000000007L144.00594253990045,5.000000000000007L143.82338413553347,5.000000000000007L143.6404003328828,5.000000000000007L143.45773106099173,5.000000000000007L143.27509976021244,5.000000000000007L143.0923070314448,5.000000000000007L142.90960303730722,5.000000000000007L142.72691569360362,5.000000000000007L142.36138851258738,5.000000000000007L142.1784512093195,5.000000000000007L141.99576264729149,5.000000000000007L141.81293235352027,5.0000000000000036L141.63028582368545,5.0000000000000036L141.44759847998188,5.0000000000000036L141.26480920313347,5.0000000000000036L141.08204205917906,5.0000000000000036L140.89920689211007,5.0000000000000036L140.7164165999913,5.0000000000000036L140.5337542319388,5.0000000000000036L140.35115359232452,5.0000000000000036L140.16846096921506,5.0000000000000036L139.98560752727948,5.0000000000000036L139.80288931935675,5.0000000000000036L139.62010978910388,5.0000000000000036L139.43735036120424,5.0000000000000036L139.2544959039983,5.0000000000000036L139.07183312983761,5.0000000000000036L127.74142111515246,5.000000000000004L127.55851894023925,5.000000000000004L127.37580946364172,5.000000000000004L127.19314039480473,5.000000000000004L127.01028979562618,5.000000000000004L126.82762255427588,5.000000000000004L126.64475875658255,5.000000000000004L126.46219121478228,5.000000000000004L126.2793367575763,5.000000000000004L126.09669408576887,5.000000000000004L125.91395272968181,5.000000000000004L125.73106822047298,5.000000000000004L125.54853113678371,5.000000000000004L125.36583100067352,5.000000000000004L125.18299867636156,5.000000000000004L125.00014787412894,5.000000000000004L124.81741423409663,5.000000000000004L124.63463084581636,5.000000000000004L124.4520517299339,5.000000000000004L124.26912640685633,5.000000000000004L124.0864136813936,5.000000000000004L123.90361628238226,5.000000000000004L123.72091350656912,5.000000000000004L123.53812219917998,5.000000000000004L123.35543302798975,5.000000000000004L123.1726975604708,5.000000000000004L122.9898487887789,5.000000000000004L122.80709159447409,5.000000000000004L122.62445034404517,5.000000000000004L122.44162979686948,5.000000000000004L122.2588776789165,5.000000000000004L121.89339131176902,12.5L121.71066335725077,12.5L121.528030838147,12.5L121.34532643790128,12.5L121.16246893488422,12.5L120.97971255279572,12.5L120.7968729185371,12.5L120.61413643574778,12.5L120.43135040776457,12.5L120.24858387297238,12.5L120.06586058869782,12.5L119.88302400025032,12.5L119.70046295618039,12.5L119.51758535081007,12.5L119.33481008469273,12.5L119.15219096715782,12.5L118.96935316038588,12.5L118.78651149558655,12.5L118.60385054891252,12.5L118.42123224359389,12.5L75.10964569693746,12.5L74.9269827197227,12.5L74.74431507226426,12.5L74.56139868356593,12.5L74.37869631386093,12.5L74.19607638410972,12.5L74.01328670115316,12.5L73.83042737064946,12.5L73.6477276406474,12.5L73.464885772794,12.5L73.2822520353658,12.5L73.09965606599525,12.5L72.91679470495082,12.5L72.73400035175057,12.5L72.36853104114525,12.5L72.18574684064868,12.5L72.00299269215498,12.5L71.82026311320413,12.5L71.63749799979047,12.5L71.45485959211858,12.5L71.27201346012964,12.5L71.08921057865831,12.5L70.9065106456022,12.5L70.72369050453466,12.5L70.54096762636824,12.5L70.35834099583262,12.5L70.17561994515287,12.5L69.99276812764985,12.5L69.6271946503049,12.5L69.4444541064341,12.5L69.26184290800805,12.5L69.07896773928661,12.5L68.89620303198109,12.5L68.7134555842718,12.5L68.53089149439077,12.5L68.34807094721506,12.5L68.16552614747101,12.5L67.98250457676266,12.5L67.79970372583209,12.5L57.56578309818707,12.5L57.38316255927364,12.5L57.20034891593644,12.5L57.01763943933887,12.5L56.83473421861458,12.5L56.65208768877975,12.5L56.469455169675996,12.5L56.286578782630116,12.5L56.10388676868286,12.5L55.921063378750134,12.5L55.73837867474952,12.5L55.55568605164004,12.5L55.37277027210393,12.5L55.1901032338077,12.5L55.007552545495514,12.5L54.824723876156874,12.5L54.641928710740345,12.5L54.45915588127188,12.5L54.276442140538784,12.5L54.09366667136737,12.5L53.910926939712866,12.5L53.72804486715294,12.5L53.54546351767567,12.5L51.71800223909757,12.5L51.53519346905813,12.5L51.352472012270226,12.5L51.16966385139301,12.5L50.986906047925984,12.5L50.804154336081154,12.5L50.62146496183685,12.5L50.43853821738078,12.5L50.25596966031013,12.5L50.07312271610489,12.5L49.890336282013514,12.5L49.707677771988365,12.5L49.52486900194893,12.5L49.34212480310481,12.5L49.15933430793197,12.5L48.9767117384778,12.5L48.793888348545075,12.5L48.61107165939677,12.5L48.42845619683518,12.5L48.245615141198066,12.5L40.02207766328946,12.5L39.83920675870357,12.5L39.656570584626486,12.5L39.47368729374212,12.5L39.29094106435726,12.5L39.108163158536975,12.5L38.9254179444225,12.5L38.74277588177729,12.5L38.56004691198868,12.5L38.37727327030393,12.5L38.19440175655581,12.5L38.011731875502555,12.5L37.828860158700365,12.5L37.64627921533124,12.5L37.46360364876393,12.5L37.28079569094078,12.5L37.097989763658354,12.5L36.91525328086903,12.5L36.732468268156175,12.5L36.5498343276739,12.5L36.36700200336195,12.5L36.184217396757234,12.5L36.00141492139406,12.5L35.81885083151303,12.5L35.63594520468059,12.5L35.45325055103038,12.5L35.270589807410424,12.5L35.0877365685289,12.5L34.9051371472391,12.5L34.72227010068061,12.5L34.539580117274085,12.5L34.35675916399024,12.5L34.173968059655174,12.5L33.99119360575413,12.5L33.80858037678734,12.5L33.625887144515644,17.500000000000004L33.44301461549716,17.500000000000004L33.260317322144,17.500000000000004L33.077612921898265,17.500000000000004L32.16372846914864,17.500000000000004L30.701777111990545,17.500000000000004L21.92978956663702,17.500000000000004L21.1502328964229,17.500000000000004L21.101449561403708,17.500000000000004L21.052802069559604,17.500000000000004L21.00392553272074,17.500000000000004L20.95530179820322,17.500000000000004L20.906518869292174,17.500000000000004L20.857736752597425,17.500000000000004L20.809093321834787,17.500000000000004L20.76024927364766,17.500000000000004L20.711621478048674,17.500000000000004L20.662886672953018,17.500000000000004L20.614071255390236,17.500000000000004L20.565430464330554,17.500000000000004L20.516530373219172,17.500000000000004L20.46798846949322,17.500000000000004L19.688207018419877,17.500000000000004L19.639525819599594,17.500000000000004L19.590641363651866,17.500000000000004L19.541979861076697,17.500000000000004L19.493147590025824,17.500000000000004L19.444440603338222,17.500000000000004L19.395777273276394,17.500000000000004L19.347118004296036,17.500000000000004L19.298422591690617,17.500000000000004L19.24964656661807,17.500000000000004L19.20074403885781,17.500000000000004L19.006082393393488,17.500000000000004L17.544003924385468,17.500000000000004L16.082027591576345,19.999999999999996L14.619911354510675,19.999999999999996L13.157997359302081,19.999999999999996L4.385919860994055,19.999999999999996L2.9239041356947015,19.999999999999996L1.462058569708834,19.999999999999996L0,19.999999999999996Z" fill="#347D9D"/></g></g><path class="foreground" aria-hidden="true" d="" display="none"/></g></g><g class="mark-rule role-mark" role="graphics-symbol" aria-roledescription="rule mark container"><line transform="translate(172.57015764438026,0)" x2="0" y2="200" stroke="#000" stroke-dasharray="10,5"/></g><g class="mark-group role-legend" role="graphics-symbol" aria-roledescription="legend" aria-label="Symbol legend for fill color with 4 values: To do, In progress, PR open, Done"><g transform="translate(518,0)"><path class="background" aria-hidden="true" d="M0,0h104v50h-104Z" pointer-events="none"/><g><g class="mark-group role-legend-entry"><g transform="translate(0,0)"><path class="background" aria-hidden="true" d="M0,0h0v0h0Z" pointer-events="none"/><g><g class="mark-group role-scope" role="graphics-object" aria-roledescription="group mark container"><g transform="translate(0,0)"><path class="background" aria-hidden="true" d="M0,0h104v11h-104Z" pointer-events="none" opacity="1"/><g><g class="mark-symbol role-legend-symbol" pointer-events="none"><path transform="translate(6,6)" d="M5,0A5,5,0,1,1,-5,0A5,5,0,1,1,5,0" fill="#347D9D" stroke-width="1.5" opacity="1"/></g><g class="mark-text role-legend-label" pointer-events="none"><text text-anchor="start" transform="translate(16,9)" font-family="sans-serif" font-size="10px" fill="#000" opacity="1">Done</text></g></g><path class="foreground" aria-hidden="true" d="" pointer-events="none" display="none"/></g><g transform="translate(0,13)"><path class="background" aria-hidden="true" d="M0,0h104v11h-104Z" pointer-events="none" opacity="1"/><g><g class="mark-symbol role-legend-symbol" pointer-events="none"><path transform="translate(6,6)" d="M5,0A5,5,0,1,1,-5,0A5,5,0,1,1,5,0" fill="#49EE49" stroke-width="1.5" opacity="1"/></g><g class="mark-text role-legend-label" pointer-events="none"><text text-anchor="start" transform="translate(16,9)" font-family="sans-serif" font-size="10px" fill="#000" opacity="1">PR open</text></g></g><path class="foreground" aria-hidden="true" d="" pointer-events="none" display="none"/></g><g transform="translate(0,26)"><path class="background" aria-hidden="true" d="M0,0h104v11h-104Z" pointer-events="none" opacity="1"/><g><g class="mark-symbol role-legend-symbol" pointer-events="none"><path transform="translate(6,6)" d="M5,0A5,5,0,1,1,-5,0A5,5,0,1,1,5,0" fill="#EEDD49" stroke-width="1.5" opacity="1"/></g><g class="mark-text role-legend-label" pointer-events="none"><text text-anchor="start" transform="translate(16,9)" font-family="sans-serif" font-size="10px" fill="#000" opacity="1">In progress</text></g></g><path class="foreground" aria-hidden="true" d="" pointer-events="none" display="none"/></g><g transform="translate(0,39)"><path class="background" aria-hidden="true" d="M0,0h104v11h-104Z" pointer-events="none" opacity="1"/><g><g class="mark-symbol role-legend-symbol" pointer-events="none"><path transform="translate(6,6)" d="M5,0A5,5,0,1,1,-5,0A5,5,0,1,1,5,0" fill="#EE4949" stroke-width="1.5" opacity="1"/></g><g class="mark-text role-legend-label" pointer-events="none"><text text-anchor="start" transform="translate(16,9)" font-family="sans-serif" font-size="10px" fill="#000" opacity="1">To do</text></g></g><path class="foreground" aria-hidden="true" d="" pointer-events="none" display="none"/></g></g></g><path class="foreground" aria-hidden="true" d="" pointer-events="none" display="none"/></g></g></g><path class="foreground" aria-hidden="true" d="" pointer-events="none" display="none"/></g></g><g class="mark-group role-axis" role="graphics-symbol" aria-roledescription="axis" aria-label="X-axis for a time scale with values from Monday, 03 May 2021, 12:00:01 PM to Tuesday, 01 June 2021, 12:00:00 AM"><g transform="translate(0.5,200.5)"><path class="background" aria-hidden="true" d="M0,0h0v0h0Z" pointer-events="none"/><g><g class="mark-rule role-axis-grid" pointer-events="none"><line transform="translate(96,0)" x2="0" y2="-200" stroke="#ddd" stroke-width="1" opacity="1"/><line transform="translate(219,0)" x2="0" y2="-200" stroke="#ddd" stroke-width="1" opacity="1"/><line transform="translate(342,0)" x2="0" y2="-200" stroke="#ddd" stroke-width="1" opacity="1"/><line transform="translate(465,0)" x2="0" y2="-200" stroke="#ddd" stroke-width="1" opacity="1"/></g><g class="mark-rule role-axis-tick" pointer-events="none"><line transform="translate(96,0)" x2="0" y2="5" stroke="#888" stroke-width="1" opacity="1"/><line transform="translate(219,0)" x2="0" y2="5" stroke="#888" stroke-width="1" opacity="1"/><line transform="translate(342,0)" x2="0" y2="5" stroke="#888" stroke-width="1" opacity="1"/><line transform="translate(465,0)" x2="0" y2="5" stroke="#888" stroke-width="1" opacity="1"/></g><g class="mark-text role-axis-label" pointer-events="none"><text text-anchor="middle" transform="translate(96.49094539753119,15)" font-family="sans-serif" font-size="10px" fill="#000" opacity="1">May 09</text><text text-anchor="middle" transform="translate(219.29804897219563,15)" font-family="sans-serif" font-size="10px" fill="#000" opacity="1">May 16</text><text text-anchor="middle" transform="translate(342.10515254686004,15)" font-family="sans-serif" font-size="10px" fill="#000" opacity="1">May 23</text><text text-anchor="middle" transform="translate(464.9122561215244,15)" font-family="sans-serif" font-size="10px" fill="#000" opacity="1">May 30</text></g><g class="mark-rule role-axis-domain" pointer-events="none"><line transform="translate(0,0)" x2="500" y2="0" stroke="#888" stroke-width="1" opacity="1"/></g></g><path class="foreground" aria-hidden="true" d="" pointer-events="none" display="none"/></g></g><g class="mark-group role-axis" role="graphics-symbol" aria-roledescription="axis" aria-label="Y-axis for a linear scale with values from 0 to 80"><g transform="translate(0.5,0.5)"><path class="background" aria-hidden="true" d="M0,0h0v0h0Z" pointer-events="none"/><g><g class="mark-rule role-axis-grid" pointer-events="none"><line transform="translate(0,200)" x2="500" y2="0" stroke="#ddd" stroke-opacity="0.25" stroke-width="1" opacity="1"/><line transform="translate(0,175)" x2="500" y2="0" stroke="#ddd" stroke-opacity="0.25" stroke-width="1" opacity="1"/><line transform="translate(0,150)" x2="500" y2="0" stroke="#ddd" stroke-opacity="0.25" stroke-width="1" opacity="1"/><line transform="translate(0,125)" x2="500" y2="0" stroke="#ddd" stroke-opacity="0.25" stroke-width="1" opacity="1"/><line transform="translate(0,100)" x2="500" y2="0" stroke="#ddd" stroke-opacity="0.25" stroke-width="1" opacity="1"/><line transform="translate(0,75)" x2="500" y2="0" stroke="#ddd" stroke-opacity="0.25" stroke-width="1" opacity="1"/><line transform="translate(0,50)" x2="500" y2="0" stroke="#ddd" stroke-opacity="0.25" stroke-width="1" opacity="1"/><line transform="translate(0,25)" x2="500" y2="0" stroke="#ddd" stroke-opacity="0.25" stroke-width="1" opacity="1"/><line transform="translate(0,0)" x2="500" y2="0" stroke="#ddd" stroke-opacity="0.25" stroke-width="1" opacity="1"/></g><g class="mark-rule role-axis-tick" pointer-events="none"><line transform="translate(0,200)" x2="-5" y2="0" stroke="#888" stroke-width="1" opacity="1"/><line transform="translate(0,175)" x2="-5" y2="0" stroke="#888" stroke-width="1" opacity="1"/><line transform="translate(0,150)" x2="-5" y2="0" stroke="#888" stroke-width="1" opacity="1"/><line transform="translate(0,125)" x2="-5" y2="0" stroke="#888" stroke-width="1" opacity="1"/><line transform="translate(0,100)" x2="-5" y2="0" stroke="#888" stroke-width="1" opacity="1"/><line transform="translate(0,75)" x2="-5" y2="0" stroke="#888" stroke-width="1" opacity="1"/><line transform="translate(0,50)" x2="-5" y2="0" stroke="#888" stroke-width="1" opacity="1"/><line transform="translate(0,25)" x2="-5" y2="0" stroke="#888" stroke-width="1" opacity="1"/><line transform="translate(0,0)" x2="-5" y2="0" stroke="#888" stroke-width="1" opacity="1"/></g><g class="mark-text role-axis-label" pointer-events="none"><text text-anchor="end" transform="translate(-7,203)" font-family="sans-serif" font-size="10px" fill="#000" opacity="1">0</text><text text-anchor="end" transform="translate(-7,178)" font-family="sans-serif" font-size="10px" fill="#000" opacity="1">10</text><text text-anchor="end" transform="translate(-7,153)" font-family="sans-serif" font-size="10px" fill="#000" opacity="1">20</text><text text-anchor="end" transform="translate(-7,128)" font-family="sans-serif" font-size="10px" fill="#000" opacity="1">30</text><text text-anchor="end" transform="translate(-7,103)" font-family="sans-serif" font-size="10px" fill="#000" opacity="1">40</text><text text-anchor="end" transform="translate(-7,78)" font-family="sans-serif" font-size="10px" fill="#000" opacity="1">50</text><text text-anchor="end" transform="translate(-7,53)" font-family="sans-serif" font-size="10px" fill="#000" opacity="1">60</text><text text-anchor="end" transform="translate(-7,28)" font-family="sans-serif" font-size="10px" fill="#000" opacity="1">70</text><text text-anchor="end" transform="translate(-7,3)" font-family="sans-serif" font-size="10px" fill="#000" opacity="1">80</text></g><g class="mark-rule role-axis-domain" pointer-events="none"><line transform="translate(0,200)" x2="0" y2="-200" stroke="#888" stroke-width="1" opacity="1"/></g></g><path class="foreground" aria-hidden="true" d="" pointer-events="none" display="none"/></g></g></g><path class="foreground" aria-hidden="true" d="" display="none"/></g></g></g></svg>